<?xml version="1.0" encoding="utf-8"?>
<!-- Generator: Adobe Illustrator 16.0.0, SVG Export Plug-In . SVG Version: 6.00 Build 0)  -->
<!DOCTYPE svg PUBLIC "-//W3C//DTD SVG 1.1//EN" "http://www.w3.org/Graphics/SVG/1.1/DTD/svg11.dtd">
<svg version="1.1" id="Layer_1" xmlns="http://www.w3.org/2000/svg" xmlns:xlink="http://www.w3.org/1999/xlink" x="0px" y="0px"
	 width="100px" height="100px" viewBox="0 0 100 100" enable-background="new 0 0 100 100" xml:space="preserve">
<path fill="#225282" d="M52.083,54.393c-0.805,0.707-1.687,1.367-2.648,1.979c-0.961,0.617-1.883,1.25-2.769,1.902
	c-1.843,1.258-3.298,2.734-4.364,4.433s-1.613,3.688-1.635,5.961h18.628v-4.003h-13.29c0.183-0.601,0.518-1.166,1.017-1.703
	c0.487-0.538,1.068-1.052,1.727-1.551c0.668-0.496,1.385-0.992,2.165-1.489c0.781-0.496,1.561-1.019,2.342-1.566
	c0.777-0.548,1.534-1.141,2.261-1.77c0.723-0.629,1.374-1.313,1.943-2.055c0.574-0.748,1.03-1.561,1.367-2.451
	c0.338-0.888,0.506-1.884,0.506-2.98c0-0.888-0.144-1.824-0.426-2.804c-0.287-0.981-0.777-1.885-1.465-2.729
	c-0.687-0.833-1.591-1.529-2.707-2.077c-1.114-0.548-2.509-0.822-4.17-0.822c-1.532,0-2.88,0.27-4.034,0.804
	c-1.157,0.536-2.135,1.273-2.944,2.214c-0.804,0.943-1.408,2.059-1.809,3.354c-0.403,1.292-0.606,2.702-0.606,4.214h4.441
	c0.029-0.963,0.125-1.866,0.292-2.707c0.173-0.834,0.43-1.56,0.782-2.174c0.349-0.616,0.817-1.1,1.403-1.451
	c0.583-0.349,1.315-0.532,2.201-0.532c0.961,0,1.739,0.165,2.337,0.492c0.598,0.328,1.067,0.735,1.404,1.217
	c0.337,0.485,0.564,1.005,0.684,1.57c0.114,0.562,0.173,1.093,0.173,1.585c-0.024,1.07-0.296,2.022-0.82,2.844
	C53.553,52.92,52.892,53.686,52.083,54.393"/>
<path fill="#225282" d="M15,22v9.333V78h70V31.333V22H15z M82.667,75.667H17.333v-42h65.333V75.667z"/>
</svg>
