<?xml version="1.0" encoding="utf-8"?>
<!-- Generator: Adobe Illustrator 16.0.0, SVG Export Plug-In . SVG Version: 6.00 Build 0)  -->
<!DOCTYPE svg PUBLIC "-//W3C//DTD SVG 1.1//EN" "http://www.w3.org/Graphics/SVG/1.1/DTD/svg11.dtd">
<svg version="1.1" id="Layer_1" xmlns="http://www.w3.org/2000/svg" xmlns:xlink="http://www.w3.org/1999/xlink" x="0px" y="0px"
	 width="100px" height="100px" viewBox="0 0 100 100" enable-background="new 0 0 100 100" xml:space="preserve">
<polygon fill="#225282" points="60.732,35.732 50,46.464 39.268,35.732 35.732,39.268 46.465,50 35.732,60.732 39.268,64.268 
	50,53.535 60.732,64.268 64.268,60.732 53.535,50 64.268,39.268 "/>
<g>
	<path fill="#225282" d="M50,15c-19.327,0-35,15.671-35,35c0,19.328,15.673,35,35,35c19.328,0,35-15.672,35-35
		C85,30.671,69.328,15,50,15 M50,82.5c-17.92,0-32.5-14.579-32.5-32.5c0-17.92,14.58-32.5,32.5-32.5c17.921,0,32.5,14.58,32.5,32.5
		C82.5,67.921,67.921,82.5,50,82.5"/>
</g>
</svg>
